<svg width="128" height="100" viewBox="0 0 128 100" fill="none" xmlns="http://www.w3.org/2000/svg">
<path d="M128.039 62.7188V112.674C128.039 117.293 124.294 121.039 119.674 121.039H50.7765C46.1566 121.039 42.4115 117.293 42.4115 112.674V62.7188C42.4115 60.8999 42.6589 59.0895 43.1469 57.3374L51.1072 28.756C51.7172 26.5658 53.712 25.0506 55.9856 25.0506H114.465C116.739 25.0506 118.733 26.5658 119.343 28.756L127.304 57.3373C127.792 59.0895 128.039 60.8999 128.039 62.7188Z" fill="#F7BB90"/>
<path opacity="0.15" d="M128.056 62.7318V112.663C128.056 117.283 124.288 121.05 119.668 121.05H70.8838C84.3169 106.995 93.0318 89.6305 95.2597 71.0536C97.4877 52.7062 92.9008 36.6849 87.5276 25.054H114.459C116.752 25.054 118.718 26.5612 119.341 28.7563L127.302 57.3258C127.794 59.0951 128.056 60.897 128.056 62.7318Z" fill="black"/>
<path d="M128.039 62.7261V112.669C128.039 117.302 124.302 121.038 119.67 121.038H108.552V62.7261C108.552 60.904 108.799 59.113 109.293 57.3527L117.91 26.4401C118.589 27.0268 119.083 27.8298 119.33 28.7562L127.298 57.3218C127.792 59.0821 128.039 60.904 128.039 62.7261Z" fill="#D08867"/>
<path d="M127.135 116.42C126.619 117.489 125.864 118.429 124.961 119.148L118.29 108.146L110.476 121.046H108.559V117.876L116.649 104.534V30.9296L117.903 26.433C118.584 27.0227 119.082 27.8336 119.322 28.755L119.93 30.9296V104.534L127.135 116.42Z" fill="#BC6E52"/>
<path d="M117.906 26.443L110.148 38.6728C109.024 40.4393 107.071 41.5127 104.975 41.5127H46.0343C44.1665 41.5127 43.0424 39.4589 44.0397 37.8868L50.3871 27.8798C51.5111 26.1134 53.4635 25.04 55.5596 25.04H104.045V25.0484H114.45C115.777 25.0484 117.011 25.5471 117.906 26.443Z" fill="#F8C6A4"/>
<path d="M78.6587 38.5473L73.2641 31.0716L74.204 21.9045C74.3113 20.8556 73.7341 19.8562 72.7717 19.4258L64.3581 15.6615L60.5943 7.24731C60.1636 6.28548 59.1644 5.70831 58.1162 5.81501L48.9447 6.75426L41.4709 1.36012C40.617 0.744789 39.4662 0.744789 38.6123 1.36012L31.1384 6.75411L21.9688 5.81486C20.9247 5.70816 19.9212 6.28532 19.4907 7.24777L15.7276 15.6613L7.31349 19.4246C6.35104 19.8552 5.77327 20.8538 5.88058 21.9027L6.81983 31.0735L1.42629 38.5473C0.810356 39.4006 0.810356 40.5526 1.42568 41.406L6.82028 48.881L5.88165 58.0512C5.77434 59.1001 6.35211 60.0988 7.31395 60.5293L15.7263 64.2919L19.4906 72.7067C19.9212 73.6685 20.9247 74.2451 21.9687 74.139L31.1383 73.2004L38.6121 78.5931C39.0391 78.9007 39.5399 79.0546 40.0414 79.0546C40.5422 79.0546 41.0436 78.9007 41.47 78.5931L48.9457 73.2004L58.1165 74.1384C59.1713 74.2451 60.1641 73.6679 60.5946 72.7055L64.3578 64.2932L72.7714 60.5293C73.7332 60.0987 74.311 59.0995 74.2037 58.0512L73.2644 48.881L78.6584 41.406C79.274 40.5526 79.274 39.4006 78.6587 38.5473Z" fill="#9DCEB1"/>
<path d="M78.6554 38.5488L73.2608 31.0732L74.2006 21.906C74.308 20.8571 73.7308 19.8578 72.7683 19.4273L64.3548 15.663L60.5909 7.24883C60.1603 6.28699 59.1611 5.70982 58.1129 5.81653L50.6802 6.57748C50.8636 6.77241 51.0211 6.99497 51.1345 7.24883L54.8984 15.663L63.3119 19.4273C64.2744 19.8579 64.8515 20.8571 64.7442 21.906L63.8043 31.0732L69.199 38.5488C69.8143 39.4021 69.8143 40.5542 69.199 41.4075L63.805 48.8825L64.7442 58.0527C64.8515 59.101 64.2737 60.1004 63.3119 60.5308L54.8984 64.2947L51.1351 72.707C51.0213 72.9616 50.8639 73.1846 50.6802 73.3796L58.1135 74.1399C59.1683 74.2466 60.1611 73.6695 60.5916 72.707L64.3548 64.2947L72.7683 60.5308C73.7302 60.1002 74.308 59.101 74.2006 58.0527L73.2614 48.8825L78.6554 41.4075C79.2707 40.5542 79.2707 39.4021 78.6554 38.5488Z" fill="#9FBEAC"/>
<path d="M21.5539 31.0005H14.402C13.3901 31.0005 12.5702 31.8204 12.5702 32.8323V47.1312C12.5702 48.1431 13.3901 48.963 14.402 48.963C15.4138 48.963 16.2338 48.1431 16.2338 47.1312V41.813H20.1216C21.1335 41.813 21.9534 40.9925 21.9534 39.9812C21.9534 38.97 21.1335 38.1494 20.1216 38.1494H16.2338V34.6641H21.5539C22.5658 34.6641 23.3857 33.8442 23.3857 32.8323C23.3857 31.8204 22.5658 31.0005 21.5539 31.0005Z" fill="#F5FCFF"/>
<path d="M50.9825 34.6616C51.9944 34.661 52.8137 33.8405 52.8137 32.8286C52.8131 31.8173 51.9932 30.9979 50.9819 30.9979H50.9813L43.8312 30.9997C42.8199 31.0003 42.0001 31.8202 42.0001 32.8315V47.1321C42.0001 47.6173 42.1933 48.0838 42.5368 48.4273C42.8802 48.7707 43.3458 48.964 43.832 48.964H43.8326L50.9827 48.9616C51.9946 48.9616 52.8138 48.1411 52.8138 47.1292C52.8132 46.1179 51.9934 45.298 50.9821 45.298H50.9814L45.6638 45.2992V41.8123L49.5516 41.8116C50.5629 41.811 51.3828 40.9912 51.3828 39.9793C51.3828 38.968 50.5623 38.1481 49.551 38.1481H49.5504L45.6638 38.1487V34.6628L50.9825 34.6616Z" fill="#F5FCFF"/>
<path d="M65.691 45.2981L60.3727 45.2987V41.8123L64.2605 41.8116C65.2724 41.811 66.0923 40.9912 66.0923 39.9793C66.0923 38.968 65.2718 38.1475 64.2605 38.1481L60.3727 38.1487V34.6628L65.6916 34.6616C66.7035 34.661 67.5233 33.8405 67.5227 32.8286C67.5221 31.8173 66.7022 30.9979 65.691 30.9979H65.6903L58.5403 30.9997C57.529 31.0003 56.7091 31.8202 56.7091 32.8315V47.1304C56.7091 47.6163 56.9024 48.0828 57.2458 48.4262C57.5893 48.7697 58.0555 48.9623 58.541 48.9623L65.6911 48.9617C66.703 48.9617 67.5229 48.1412 67.5229 47.1299C67.5229 46.118 66.7022 45.2981 65.691 45.2981Z" fill="#F5FCFF"/>
<path d="M33.8938 41.813H35.9063C36.9183 41.813 37.7381 40.9925 37.7381 39.9812V32.8323C37.7381 31.8204 36.9183 31.0005 35.9063 31.0005H28.7575C27.7456 31.0005 26.9257 31.8204 26.9257 32.8323V47.1312C26.9257 48.1431 27.7456 48.963 28.7575 48.963C29.7694 48.963 30.5893 48.1431 30.5893 47.1312V43.689L35.3267 48.4271C35.6845 48.7849 36.1532 48.9632 36.622 48.9632C37.0906 48.9632 37.5594 48.7843 37.9172 48.4271C38.6328 47.7115 38.6328 46.5518 37.9172 45.8363L33.8938 41.813ZM30.5893 34.6641H34.0746V38.1494H30.5893V34.6641Z" fill="#F5FCFF"/>
</svg>
