<svg width="22" height="19" viewBox="0 0 22 19" fill="none" xmlns="http://www.w3.org/2000/svg">
<path d="M0.109528 9.49981C0.109528 9.27604 0.198421 9.06143 0.356655 8.90319C0.514889 8.74496 0.729502 8.65606 0.953278 8.65606H18.8605L11.8928 1.80481C11.8137 1.7271 11.7508 1.63459 11.7075 1.53254C11.6642 1.4305 11.6414 1.32094 11.6405 1.2101C11.6396 1.09926 11.6605 0.98932 11.702 0.886559C11.7436 0.783798 11.8049 0.690227 11.8827 0.611187C11.9604 0.532148 12.0529 0.469189 12.1549 0.425904C12.257 0.38262 12.3665 0.359857 12.4774 0.358917C12.7012 0.357018 12.9167 0.444121 13.0763 0.601063L21.5121 8.89681L21.5233 8.90806C21.6022 8.9882 21.6642 9.0833 21.7058 9.18775C21.7474 9.2922 21.7677 9.40391 21.7655 9.51632C21.7633 9.62872 21.7386 9.73955 21.693 9.84229C21.6473 9.94504 21.5816 10.0376 21.4997 10.1146L13.0763 18.3986C12.9973 18.4763 12.9037 18.5377 12.801 18.5792C12.6983 18.6208 12.5884 18.6417 12.4776 18.6408C12.3668 18.6399 12.2572 18.6171 12.1552 18.5739C12.0532 18.5306 11.9606 18.4677 11.8829 18.3887C11.8052 18.3097 11.7438 18.2162 11.7023 18.1135C11.6607 18.0107 11.6398 17.9008 11.6407 17.79C11.6416 17.6792 11.6644 17.5696 11.7076 17.4676C11.7509 17.3656 11.8138 17.2731 11.8928 17.1954L18.8605 10.3436H0.953278C0.729502 10.3436 0.514889 10.2547 0.356655 10.0964C0.198421 9.9382 0.109528 9.72359 0.109528 9.49981Z" fill="white"/>
</svg>
