<svg width="72" height="72" viewBox="0 0 72 72" fill="none" xmlns="http://www.w3.org/2000/svg">
<path d="M43.9952 6.98803C45.1067 6.43231 46.4582 6.88281 47.0139 7.99426L53.6174 21.2012C57.6768 21.5131 60.2241 22.3093 61.8677 24.3424C63.1739 25.9581 63.5966 27.9683 63.4413 30.7505H8.56185C8.40652 27.9683 8.82928 25.9581 10.1355 24.3424C11.779 22.3093 14.3263 21.5131 18.3855 21.2012L24.989 7.99426C25.5447 6.88281 26.8962 6.43231 28.0077 6.98803C29.1191 7.54376 29.5697 8.89527 29.0139 10.0067L23.5091 21.0163C24.9588 21.0005 26.5406 21.0005 28.2673 21.0005H43.7358C45.4624 21.0005 47.0442 21.0005 48.4938 21.0163L42.989 10.0067C42.4333 8.89527 42.8838 7.54376 43.9952 6.98803Z" fill="#B3B3B3"/>
<path fill-rule="evenodd" clip-rule="evenodd" d="M10.6669 42.772C10.0459 39.874 9.51435 37.3935 9.13688 35.2505H62.8663C62.4888 37.3934 61.9573 39.8739 61.3363 42.7718L60.0505 48.772C58.5896 55.5897 57.8591 58.9985 55.3839 60.9995C52.9087 63.0005 49.4225 63.0005 42.4501 63.0005H29.5531C22.5806 63.0005 19.0944 63.0005 16.6192 60.9995C14.144 58.9985 13.4135 55.5897 11.9526 48.772L10.6669 42.772ZM30.0015 39.7505C28.7588 39.7505 27.7515 40.7579 27.7515 42.0005C27.7515 43.2431 28.7588 44.2505 30.0015 44.2505H42.0015C43.2441 44.2505 44.2515 43.2431 44.2515 42.0005C44.2515 40.7579 43.2441 39.7505 42.0015 39.7505H30.0015Z" fill="#B3B3B3"/>
</svg>
