<svg width="78" height="78" viewBox="0 0 78 78" fill="none" xmlns="http://www.w3.org/2000/svg">
<g opacity="0.4">
<path d="M70.9423 23.2249C72.9786 25.3967 73.8543 28.1313 74.2638 31.3791C74.6579 34.5073 74.6579 38.4847 74.6579 43.4192V43.8151C74.6579 48.7497 74.6579 52.7272 74.2638 55.8551C73.8543 59.1032 72.9786 61.8374 70.9423 64.0093C68.9059 66.1813 66.3421 67.1154 63.2969 67.5518C60.364 67.9725 56.6344 67.9725 52.0078 67.9725H34.7212C30.0945 67.9725 26.3654 67.9725 23.4323 67.5518C20.3872 67.1154 17.8232 66.1813 15.7869 64.0093C14.5516 62.6917 13.7432 61.167 13.207 59.4463C16.2658 59.8549 20.0501 59.8549 24.4224 59.8544H42.0058C46.5046 59.8549 50.3804 59.8549 53.4847 59.4101C56.8108 58.9328 59.9995 57.8571 62.586 55.0988C65.1721 52.3404 66.1805 48.9395 66.6281 45.3918C67.0455 42.0813 67.045 37.9473 67.045 33.1494V32.4368C67.045 27.7724 67.0455 23.7355 66.662 20.4727C68.2759 21.0445 69.7063 21.9068 70.9423 23.2249Z" fill="#C7C7C7"/>
<path d="M33.2134 26.4766C29.9436 26.4766 27.293 29.3036 27.293 32.7909C27.293 36.2782 29.9436 39.1053 33.2134 39.1053C36.4831 39.1053 39.1337 36.2782 39.1337 32.7909C39.1337 29.3036 36.4831 26.4766 33.2134 26.4766Z" fill="#414141"/>
<path fill-rule="evenodd" clip-rule="evenodd" d="M7.42967 14.313C4.45703 17.4835 4.45703 22.5862 4.45703 32.7918C4.45703 42.9973 4.45703 48.1002 7.42967 51.2703C10.4023 54.4409 15.1867 54.4409 24.7555 54.4409H41.6708C51.2398 54.4409 56.0238 54.4409 58.9966 51.2703C61.9695 48.1002 61.9695 42.9973 61.9695 32.7918C61.9695 22.5862 61.9695 17.4835 58.9966 14.313C56.0238 11.1426 51.2398 11.1426 41.6708 11.1426H24.7555C15.1867 11.1426 10.4023 11.1426 7.42967 14.313ZM22.2182 32.7918C22.2182 26.3153 27.1408 21.0651 33.2132 21.0651C39.2855 21.0651 44.2082 26.3153 44.2082 32.7918C44.2082 39.2682 39.2855 44.5184 33.2132 44.5184C27.1408 44.5184 22.2182 39.2682 22.2182 32.7918ZM51.8202 42.7143C50.419 42.7143 49.2828 41.5027 49.2828 40.0081V25.5754C49.2828 24.0808 50.419 22.8692 51.8202 22.8692C53.2214 22.8692 54.3575 24.0808 54.3575 25.5754V40.0081C54.3575 41.5027 53.2214 42.7143 51.8202 42.7143ZM12.069 40.0081C12.069 41.5027 13.2049 42.7143 14.6063 42.7143C16.0076 42.7143 17.1435 41.5027 17.1435 40.0081V25.5754C17.1435 24.0808 16.0076 22.8692 14.6063 22.8692C13.2049 22.8692 12.069 24.0808 12.069 25.5754V40.0081Z" fill="#414141"/>
</g>
</svg>
