<svg width="26" height="26" viewBox="0 0 26 26" fill="none" xmlns="http://www.w3.org/2000/svg">
<path d="M5.4165 9.22451C5.4165 5.32675 8.81168 2.16699 12.9998 2.16699C17.188 2.16699 20.5832 5.32675 20.5832 9.22451C20.5832 13.0917 18.1628 17.6044 14.3866 19.2182C13.5063 19.5944 12.4934 19.5944 11.6131 19.2182C7.83684 17.6044 5.4165 13.0917 5.4165 9.22451Z" stroke="black" stroke-width="1.5"/>
<path d="M15.1668 9.74967C15.1668 10.9463 14.1968 11.9163 13.0002 11.9163C11.8035 11.9163 10.8335 10.9463 10.8335 9.74967C10.8335 8.55306 11.8035 7.58301 13.0002 7.58301C14.1968 7.58301 15.1668 8.55306 15.1668 9.74967Z" stroke="black" stroke-width="1.5"/>
<path d="M22.7071 16.792C23.4279 17.4447 23.8332 18.1804 23.8332 18.9587C23.8332 21.651 18.9829 23.8337 12.9998 23.8337C7.01675 23.8337 2.1665 21.651 2.1665 18.9587C2.1665 18.1804 2.5718 17.4447 3.29259 16.792" stroke="black" stroke-width="1.5" stroke-linecap="round"/>
</svg>
