<svg width="14" height="15" viewBox="0 0 14 15" fill="none" xmlns="http://www.w3.org/2000/svg">
<g clip-path="url(#clip0_916_1172)">
<path d="M4.55563 2.85242C5.36162 1.40654 5.76462 0.683594 6.36714 0.683594C6.96964 0.683594 7.37264 1.40654 8.17864 2.85242L8.38716 3.22649C8.61621 3.63737 8.73072 3.8428 8.90929 3.97835C9.08784 4.1139 9.31022 4.16422 9.75497 4.26486L10.1599 4.35647C11.7251 4.7106 12.5076 4.88766 12.6939 5.48638C12.88 6.08512 12.3465 6.70898 11.2795 7.95672L11.0035 8.27953C10.7002 8.63409 10.5486 8.81137 10.4805 9.0307C10.4122 9.25003 10.4351 9.48656 10.481 9.95967L10.5227 10.3903C10.684 12.0551 10.7647 12.8875 10.2772 13.2575C9.78977 13.6275 9.05704 13.2902 7.59162 12.6154L7.2125 12.4408C6.79607 12.2491 6.58784 12.1532 6.36714 12.1532C6.14642 12.1532 5.93821 12.2491 5.52177 12.4408L5.14264 12.6154C3.67719 13.2902 2.94446 13.6275 2.45703 13.2575C1.96958 12.8875 2.05025 12.0551 2.21156 10.3903L2.2533 9.95967C2.29914 9.48656 2.32206 9.25003 2.25385 9.0307C2.18565 8.81137 2.03405 8.63409 1.73083 8.27953L1.45478 7.95672C0.387761 6.70898 -0.145739 6.08512 0.0404441 5.48638C0.226628 4.88766 1.0092 4.7106 2.57435 4.35647L2.97928 4.26486C3.42405 4.16422 3.64643 4.1139 3.82499 3.97835C4.00355 3.8428 4.11807 3.63737 4.3471 3.22649L4.55563 2.85242Z" fill="#FDBE49"/>
</g>
<defs>
<clipPath id="clip0_916_1172">
<rect width="13.4304" height="13.4304" fill="white" transform="translate(0.00390625 0.683594)"/>
</clipPath>
</defs>
</svg>
