<svg width="46" height="45" viewBox="0 0 46 45" fill="none" xmlns="http://www.w3.org/2000/svg">
<g clip-path="url(#clip0_1088_33)">
<path d="M0.84375 22.3723C0.84375 10.1698 10.7358 0.277832 22.9382 0.277832C35.1406 0.277832 45.0326 10.1698 45.0326 22.3723C45.0326 34.5747 35.1406 44.4667 22.9382 44.4667C10.7358 44.4667 0.84375 34.5747 0.84375 22.3723Z" fill="#FDFDFD"/>
<g clip-path="url(#clip1_1088_33)">
<g clip-path="url(#clip2_1088_33)">
<path d="M22.5833 26.0392C26.4954 26.0392 29.6667 22.8679 29.6667 18.9559C29.6667 15.0439 26.4954 11.8726 22.5833 11.8726C18.6713 11.8726 15.5 15.0439 15.5 18.9559C15.5 22.8679 18.6713 26.0392 22.5833 26.0392Z" fill="#91204A"/>
<path d="M36.7513 39.3203C36.7513 43.7208 36.7513 47.2891 22.5846 47.2891C8.41797 47.2891 8.41797 43.7208 8.41797 39.3203C8.41797 34.9198 14.7611 31.3516 22.5846 31.3516C30.4082 31.3516 36.7513 34.9198 36.7513 39.3203Z" fill="#91204A"/>
</g>
</g>
</g>
<path d="M1.30405 22.3723C1.30405 10.4241 10.99 0.738132 22.9382 0.738132C34.8864 0.738132 44.5723 10.4241 44.5723 22.3723C44.5723 34.3204 34.8864 44.0064 22.9382 44.0064C10.99 44.0064 1.30405 34.3204 1.30405 22.3723Z" stroke="#E5E7EB" stroke-width="0.920601"/>
<defs>
<clipPath id="clip0_1088_33">
<path d="M0.84375 22.3723C0.84375 10.1698 10.7358 0.277832 22.9382 0.277832C35.1406 0.277832 45.0326 10.1698 45.0326 22.3723C45.0326 34.5747 35.1406 44.4667 22.9382 44.4667C10.7358 44.4667 0.84375 34.5747 0.84375 22.3723Z" fill="white"/>
</clipPath>
<clipPath id="clip1_1088_33">
<rect width="47" height="41" fill="white" transform="translate(0 3.43506)"/>
</clipPath>
<clipPath id="clip2_1088_33">
<path d="M3 25.8306C3 14.7849 11.9543 5.83057 23 5.83057C34.0457 5.83057 43 14.7849 43 25.8306C43 36.8763 34.0457 45.8306 23 45.8306C11.9543 45.8306 3 36.8763 3 25.8306Z" fill="white"/>
</clipPath>
</defs>
</svg>
